<svg id="Layer_1" data-name="Layer 1" xmlns="http://www.w3.org/2000/svg" viewBox="0 0 249.02 134.7"><defs><style>.cls-1{fill:#ea7024;}.cls-1,.cls-2{fill-rule:evenodd;}.cls-2{fill:#f2a62a;}</style></defs><title>babelfish_logo</title><path class="cls-1" d="M146.61,139c2.79,18.28,4.7,36.85,6.77,55.34,1.06,9.48,2.47,18.42,4.28,27.46,1.47,7.29,1.49,12.35,8.54,16.49-34.26,14.52-31.92,11.87-55-10.42L80.52,198.27c-6.51-6.29-5.56-8-11.35-.8l-6.75,8.34c-7.76,9.6-6.82,10-6.82-2.35V156.55c0-12-1.51-13.19,6.53-3.24L68.32,161c5.59,6.91,4.39,7.79,10.85,1.55L107,135.63c18.6-18,32.58-42.75,39.61,3.41h0Zm-37.86,13.12a14,14,0,1,0,9.87,4.09,13.91,13.91,0,0,0-9.87-4.09h0Zm6.13,7.83a8.66,8.66,0,1,0,2.54,6.13A8.64,8.64,0,0,0,114.88,160Z" transform="translate(-55.49 -112.65)"/><path class="cls-2" d="M146.61,139c2.79,18.28,4.7,36.85,6.77,55.34,1.06,9.48,2.47,18.42,4.28,27.46,1.47,7.29,1.49,12.35,8.54,16.49-20,8.48-27.53,11.1-34.92,7.38V113.23C137.91,110.68,143.12,116.1,146.61,139Z" transform="translate(-55.49 -112.65)"/><path class="cls-2" d="M287.61,179.6c3.76,3.84,8.52,8.67,12.35,12.51,5.19,5.19,5.88,5.31-1.45,9s-16.15,4.44-23-.21a34.41,34.41,0,0,1-5.84-5.22C275.34,190.27,281.52,185,287.61,179.6Z" transform="translate(-55.49 -112.65)"/><path class="cls-1" d="M166.19,238.32c5.41-2.59,6.65-15.39,7.7-25.14,1.59-14.74,3.08-29.48,4.73-44.21a77.41,77.41,0,0,1,2.1-12.2q-0.49-4-1.06-8.07c-2.07-14.49-4.68-27.57-8.66-29.31-2.48.26-4.25,2.69-5.44,5.84a54.19,54.19,0,0,0-2.46,9.58c-2.67,15.05-4,30.53-5.63,45.81-0.78,7.4-1.9,14.74-3.06,22.09,0.89,6.47,2,12.77,3.24,19.12,1.46,7.29,1.49,12.35,8.54,16.49h0Zm6.75-118.71-1.94-.22a4.8,4.8,0,0,1,1.94.22h0ZM234,161.88c-1.41,5.53-2.85,11.06-4,16.65-2,9.83-2.95,20-5.19,29.81-1.51,6.58-2.95,10.86-7.61,14.46-4.44-1.61-7.65-8.26-10.06-17.24,1.64-16.12,3.35-37.72,6.82-53,1.48-6.49,3.31-13.44,5.73-14.83a4.62,4.62,0,0,1,3.49-.29A42,42,0,0,1,234,161.88h0Zm66.45,5.8c5.19-5.19,6.1-5.78-1.45-9-17.83-7.61-28.19,2-33.74,13.57a86.63,86.63,0,0,0-5.79,17.28,17.23,17.23,0,0,0,7.78,8.47l0.06,0C269,197.1,290.62,177.51,300.46,167.67Z" transform="translate(-55.49 -112.65)"/><path class="cls-2" d="M217.24,222.8A26.22,26.22,0,0,1,213.8,225a86,86,0,0,1-8.44,3.93c-6,2.47-9.23,3.5-11.8.22s-4-8-5-12.81c-4.86-22.26-5.68-45.17-8.89-67.67-2.07-14.49-4.68-27.57-8.66-29.31,14.37,1.47,22.81,5.57,26.12,16.51C201.29,149.69,201.66,217.14,217.24,222.8Z" transform="translate(-55.49 -112.65)"/><path class="cls-2" d="M267.26,198c-4.76,3-15.56,10.84-21,8.46-4.65-2-5.08-8.44-6.39-14-1.88-8-3.9-15.79-4.91-24.13-1.41-11.56-3.87-20.58-11.74-30.83,8.23,3.68,14.53,6.39,19.42,10.47,8.89,7.41,10.09,19.61,13.23,30.19C258.89,188.3,259.47,193.43,267.26,198Z" transform="translate(-55.49 -112.65)"/></svg>